<mxfile host="app.diagrams.net" agent="Mozilla/5.0 (Windows NT 10.0; Win64; x64) AppleWebKit/537.36 (KHTML, like Gecko) Chrome/128.0.0.0 Safari/537.36" version="24.7.13">
  <diagram name="Page-1" id="JgsxvdWHrSa3M9jzYC9m">
    <mxGraphModel dx="840" dy="477" grid="1" gridSize="10" guides="1" tooltips="1" connect="1" arrows="1" fold="1" page="1" pageScale="1" pageWidth="850" pageHeight="1100" math="0" shadow="0">
      <root>
        <mxCell id="0" />
        <mxCell id="1" parent="0" />
        <mxCell id="jspwhA8KMtk4aRlrw6pM-53" value="Driver -" style="whiteSpace=wrap;html=1;" vertex="1" parent="1">
          <mxGeometry x="275" y="150" width="80" height="30" as="geometry" />
        </mxCell>
        <mxCell id="jspwhA8KMtk4aRlrw6pM-54" value=" (Register)" style="whiteSpace=wrap;html=1;" vertex="1" parent="1">
          <mxGeometry x="475" y="90" width="80" height="30" as="geometry" />
        </mxCell>
        <mxCell id="jspwhA8KMtk4aRlrw6pM-55" value="" style="noEdgeStyle=1;orthogonal=1;rounded=0;" edge="1" source="jspwhA8KMtk4aRlrw6pM-53" target="jspwhA8KMtk4aRlrw6pM-54" parent="1">
          <mxGeometry relative="1" as="geometry">
            <Array as="points">
              <mxPoint x="374" y="159" />
              <mxPoint x="448" y="100" />
            </Array>
          </mxGeometry>
        </mxCell>
        <mxCell id="jspwhA8KMtk4aRlrw6pM-56" value="Passenger -" style="whiteSpace=wrap;html=1;" vertex="1" parent="1">
          <mxGeometry x="270" y="240" width="90" height="30" as="geometry" />
        </mxCell>
        <mxCell id="jspwhA8KMtk4aRlrw6pM-57" value="" style="noEdgeStyle=1;orthogonal=1;rounded=0;" edge="1" source="jspwhA8KMtk4aRlrw6pM-56" target="jspwhA8KMtk4aRlrw6pM-54" parent="1">
          <mxGeometry relative="1" as="geometry">
            <Array as="points">
              <mxPoint x="372" y="242.5" />
              <mxPoint x="448" y="110" />
            </Array>
          </mxGeometry>
        </mxCell>
        <mxCell id="jspwhA8KMtk4aRlrw6pM-58" value=" (Login)" style="whiteSpace=wrap;html=1;" vertex="1" parent="1">
          <mxGeometry x="475" y="270" width="80" height="30" as="geometry" />
        </mxCell>
        <mxCell id="jspwhA8KMtk4aRlrw6pM-59" value="" style="noEdgeStyle=1;orthogonal=1;rounded=0;" edge="1" source="jspwhA8KMtk4aRlrw6pM-53" target="jspwhA8KMtk4aRlrw6pM-58" parent="1">
          <mxGeometry relative="1" as="geometry">
            <Array as="points">
              <mxPoint x="372" y="177" />
              <mxPoint x="448" y="275" />
            </Array>
          </mxGeometry>
        </mxCell>
        <mxCell id="jspwhA8KMtk4aRlrw6pM-60" value="" style="noEdgeStyle=1;orthogonal=1;rounded=0;" edge="1" source="jspwhA8KMtk4aRlrw6pM-56" target="jspwhA8KMtk4aRlrw6pM-58" parent="1">
          <mxGeometry relative="1" as="geometry">
            <Array as="points">
              <mxPoint x="376" y="257.5" />
              <mxPoint x="446" y="285" />
            </Array>
          </mxGeometry>
        </mxCell>
        <mxCell id="jspwhA8KMtk4aRlrw6pM-61" value="Admin -" style="whiteSpace=wrap;html=1;" vertex="1" parent="1">
          <mxGeometry x="275" y="360" width="80" height="30" as="geometry" />
        </mxCell>
        <mxCell id="jspwhA8KMtk4aRlrw6pM-62" value="" style="noEdgeStyle=1;orthogonal=1;rounded=0;" edge="1" source="jspwhA8KMtk4aRlrw6pM-61" target="jspwhA8KMtk4aRlrw6pM-58" parent="1">
          <mxGeometry relative="1" as="geometry">
            <Array as="points">
              <mxPoint x="372" y="370" />
              <mxPoint x="448" y="295" />
            </Array>
          </mxGeometry>
        </mxCell>
        <mxCell id="jspwhA8KMtk4aRlrw6pM-63" value=" (List Ride)" style="whiteSpace=wrap;html=1;" vertex="1" parent="1">
          <mxGeometry x="475" y="30" width="80" height="30" as="geometry" />
        </mxCell>
        <mxCell id="jspwhA8KMtk4aRlrw6pM-64" value="" style="noEdgeStyle=1;orthogonal=1;rounded=0;" edge="1" source="jspwhA8KMtk4aRlrw6pM-53" target="jspwhA8KMtk4aRlrw6pM-63" parent="1">
          <mxGeometry relative="1" as="geometry">
            <Array as="points">
              <mxPoint x="372" y="153" />
              <mxPoint x="448" y="45" />
            </Array>
          </mxGeometry>
        </mxCell>
        <mxCell id="jspwhA8KMtk4aRlrw6pM-65" value=" (Search Ride)" style="whiteSpace=wrap;html=1;" vertex="1" parent="1">
          <mxGeometry x="465" y="330" width="100" height="30" as="geometry" />
        </mxCell>
        <mxCell id="jspwhA8KMtk4aRlrw6pM-66" value="" style="noEdgeStyle=1;orthogonal=1;rounded=0;" edge="1" source="jspwhA8KMtk4aRlrw6pM-56" target="jspwhA8KMtk4aRlrw6pM-65" parent="1">
          <mxGeometry relative="1" as="geometry">
            <Array as="points">
              <mxPoint x="374" y="262.5" />
              <mxPoint x="448" y="345" />
            </Array>
          </mxGeometry>
        </mxCell>
        <mxCell id="jspwhA8KMtk4aRlrw6pM-67" value=" (Book Ride)" style="whiteSpace=wrap;html=1;" vertex="1" parent="1">
          <mxGeometry x="470" y="390" width="90" height="30" as="geometry" />
        </mxCell>
        <mxCell id="jspwhA8KMtk4aRlrw6pM-68" value="" style="noEdgeStyle=1;orthogonal=1;rounded=0;" edge="1" source="jspwhA8KMtk4aRlrw6pM-56" target="jspwhA8KMtk4aRlrw6pM-67" parent="1">
          <mxGeometry relative="1" as="geometry">
            <Array as="points">
              <mxPoint x="372" y="267.5" />
              <mxPoint x="448" y="405" />
            </Array>
          </mxGeometry>
        </mxCell>
        <mxCell id="jspwhA8KMtk4aRlrw6pM-69" value=" (Cancel Ride)" style="whiteSpace=wrap;html=1;" vertex="1" parent="1">
          <mxGeometry x="465" y="150" width="100" height="30" as="geometry" />
        </mxCell>
        <mxCell id="jspwhA8KMtk4aRlrw6pM-70" value="" style="noEdgeStyle=1;orthogonal=1;rounded=0;" edge="1" source="jspwhA8KMtk4aRlrw6pM-56" target="jspwhA8KMtk4aRlrw6pM-69" parent="1">
          <mxGeometry relative="1" as="geometry">
            <Array as="points">
              <mxPoint x="374" y="247.5" />
              <mxPoint x="448" y="170" />
            </Array>
          </mxGeometry>
        </mxCell>
        <mxCell id="jspwhA8KMtk4aRlrw6pM-71" value="" style="noEdgeStyle=1;orthogonal=1;rounded=0;" edge="1" source="jspwhA8KMtk4aRlrw6pM-53" target="jspwhA8KMtk4aRlrw6pM-69" parent="1">
          <mxGeometry relative="1" as="geometry">
            <Array as="points">
              <mxPoint x="376" y="165" />
              <mxPoint x="448" y="160" />
            </Array>
          </mxGeometry>
        </mxCell>
        <mxCell id="jspwhA8KMtk4aRlrw6pM-72" value=" (Manage Profile)" style="whiteSpace=wrap;html=1;" vertex="1" parent="1">
          <mxGeometry x="460" y="210" width="110" height="30" as="geometry" />
        </mxCell>
        <mxCell id="jspwhA8KMtk4aRlrw6pM-73" value="" style="noEdgeStyle=1;orthogonal=1;rounded=0;" edge="1" source="jspwhA8KMtk4aRlrw6pM-53" target="jspwhA8KMtk4aRlrw6pM-72" parent="1">
          <mxGeometry relative="1" as="geometry">
            <Array as="points">
              <mxPoint x="374" y="171" />
              <mxPoint x="448" y="220" />
            </Array>
          </mxGeometry>
        </mxCell>
        <mxCell id="jspwhA8KMtk4aRlrw6pM-74" value="" style="noEdgeStyle=1;orthogonal=1;rounded=0;" edge="1" source="jspwhA8KMtk4aRlrw6pM-56" target="jspwhA8KMtk4aRlrw6pM-72" parent="1">
          <mxGeometry relative="1" as="geometry">
            <Array as="points">
              <mxPoint x="376" y="252.5" />
              <mxPoint x="448" y="230" />
            </Array>
          </mxGeometry>
        </mxCell>
        <mxCell id="jspwhA8KMtk4aRlrw6pM-75" value=" (Verify Ride)" style="whiteSpace=wrap;html=1;" vertex="1" parent="1">
          <mxGeometry x="470" y="450" width="90" height="30" as="geometry" />
        </mxCell>
        <mxCell id="jspwhA8KMtk4aRlrw6pM-76" value="" style="noEdgeStyle=1;orthogonal=1;rounded=0;" edge="1" source="jspwhA8KMtk4aRlrw6pM-61" target="jspwhA8KMtk4aRlrw6pM-75" parent="1">
          <mxGeometry relative="1" as="geometry">
            <Array as="points">
              <mxPoint x="372" y="380" />
              <mxPoint x="448" y="465" />
            </Array>
          </mxGeometry>
        </mxCell>
      </root>
    </mxGraphModel>
  </diagram>
</mxfile>
